<svg id="visual" viewBox="0 0 1200 900" width="1200" height="900" xmlns="http://www.w3.org/2000/svg" xmlns:xlink="http://www.w3.org/1999/xlink" version="1.1"><g stroke-width="1" stroke-linejoin="bevel"><path d="M532.3 482.3L408 423.7L438 494.3Z" fill="#040404" stroke="#040404"></path><path d="M532.3 482.3L535.3 358.7L408 423.7Z" fill="#101010" stroke="#101010"></path><path d="M269.7 277.1L295.7 408.7L408 423.7Z" fill="#020202" stroke="#020202"></path><path d="M408 423.7L295.7 408.7L438 494.3Z" fill="#020202" stroke="#020202"></path><path d="M532.3 482.3L641.7 346.7L535.3 358.7Z" fill="#070707" stroke="#070707"></path><path d="M668.7 296.1L513.3 220.1L535.3 358.7Z" fill="#040404" stroke="#040404"></path><path d="M535.3 358.7L392 220.1L408 423.7Z" fill="#040404" stroke="#040404"></path><path d="M665.7 630.9L689.7 495.3L532.3 482.3Z" fill="#020202" stroke="#020202"></path><path d="M532.3 482.3L689.7 495.3L641.7 346.7Z" fill="#090909" stroke="#090909"></path><path d="M513.3 220.1L392 220.1L535.3 358.7Z" fill="#101010" stroke="#101010"></path><path d="M778 419.7L668.7 296.1L641.7 346.7Z" fill="#0e0e0e" stroke="#0e0e0e"></path><path d="M641.7 346.7L668.7 296.1L535.3 358.7Z" fill="#090909" stroke="#090909"></path><path d="M409 668.9L502.3 670.9L438 494.3Z" fill="#090909" stroke="#090909"></path><path d="M438 494.3L502.3 670.9L532.3 482.3Z" fill="#0e0e0e" stroke="#0e0e0e"></path><path d="M281.7 632.9L409 668.9L438 494.3Z" fill="#101010" stroke="#101010"></path><path d="M295.7 408.7L243.7 537.3L438 494.3Z" fill="#040404" stroke="#040404"></path><path d="M392 220.1L269.7 277.1L408 423.7Z" fill="#070707" stroke="#070707"></path><path d="M295.7 408.7L150.3 524.3L243.7 537.3Z" fill="#101010" stroke="#101010"></path><path d="M502.3 670.9L665.7 630.9L532.3 482.3Z" fill="#050505" stroke="#050505"></path><path d="M243.7 537.3L281.7 632.9L438 494.3Z" fill="#101010" stroke="#101010"></path><path d="M828 520.3L778 419.7L689.7 495.3Z" fill="#040404" stroke="#040404"></path><path d="M689.7 495.3L778 419.7L641.7 346.7Z" fill="#070707" stroke="#070707"></path><path d="M694.7 105.6L531.3 119.6L513.3 220.1Z" fill="#040404" stroke="#040404"></path><path d="M513.3 220.1L531.3 119.6L392 220.1Z" fill="#090909" stroke="#090909"></path><path d="M392 220.1L285.7 104.6L269.7 277.1Z" fill="#111111" stroke="#111111"></path><path d="M694.7 105.6L513.3 220.1L668.7 296.1Z" fill="#0e0e0e" stroke="#0e0e0e"></path><path d="M277.7 746.4L388 749.4L409 668.9Z" fill="#020202" stroke="#020202"></path><path d="M409 668.9L388 749.4L502.3 670.9Z" fill="#000000" stroke="#000000"></path><path d="M502.3 670.9L553.3 786.4L665.7 630.9Z" fill="#111111" stroke="#111111"></path><path d="M778 419.7L766 269.1L668.7 296.1Z" fill="#0d0d0d" stroke="#0d0d0d"></path><path d="M121.3 381.7L150.3 524.3L295.7 408.7Z" fill="#020202" stroke="#020202"></path><path d="M243.7 537.3L111.3 615.9L281.7 632.9Z" fill="#050505" stroke="#050505"></path><path d="M281.7 632.9L277.7 746.4L409 668.9Z" fill="#020202" stroke="#020202"></path><path d="M388 749.4L553.3 786.4L502.3 670.9Z" fill="#101010" stroke="#101010"></path><path d="M531.3 119.6L386 88.6L392 220.1Z" fill="#050505" stroke="#050505"></path><path d="M810 610.9L828 520.3L689.7 495.3Z" fill="#0d0d0d" stroke="#0d0d0d"></path><path d="M778 419.7L899.3 424.7L766 269.1Z" fill="#111111" stroke="#111111"></path><path d="M810 610.9L689.7 495.3L665.7 630.9Z" fill="#0d0d0d" stroke="#0d0d0d"></path><path d="M128.3 270.1L121.3 381.7L269.7 277.1Z" fill="#0e0e0e" stroke="#0e0e0e"></path><path d="M269.7 277.1L121.3 381.7L295.7 408.7Z" fill="#090909" stroke="#090909"></path><path d="M166.3 734.4L277.7 746.4L281.7 632.9Z" fill="#111111" stroke="#111111"></path><path d="M392 900L559.3 900L553.3 786.4Z" fill="#020202" stroke="#020202"></path><path d="M763 759.4L810 610.9L665.7 630.9Z" fill="#0d0d0d" stroke="#0d0d0d"></path><path d="M386 88.6L285.7 104.6L392 220.1Z" fill="#0d0d0d" stroke="#0d0d0d"></path><path d="M134.3 146.6L128.3 270.1L269.7 277.1Z" fill="#000000" stroke="#000000"></path><path d="M777 154.6L694.7 105.6L668.7 296.1Z" fill="#0e0e0e" stroke="#0e0e0e"></path><path d="M531.3 119.6L519.3 0L386 88.6Z" fill="#040404" stroke="#040404"></path><path d="M0 540.3L111.3 615.9L150.3 524.3Z" fill="#0b0b0b" stroke="#0b0b0b"></path><path d="M150.3 524.3L111.3 615.9L243.7 537.3Z" fill="#0e0e0e" stroke="#0e0e0e"></path><path d="M553.3 786.4L662.7 801.4L665.7 630.9Z" fill="#0d0d0d" stroke="#0d0d0d"></path><path d="M961.3 223.1L777 154.6L766 269.1Z" fill="#090909" stroke="#090909"></path><path d="M766 269.1L777 154.6L668.7 296.1Z" fill="#111111" stroke="#111111"></path><path d="M900.3 532.3L899.3 424.7L828 520.3Z" fill="#070707" stroke="#070707"></path><path d="M828 520.3L899.3 424.7L778 419.7Z" fill="#0e0e0e" stroke="#0e0e0e"></path><path d="M662.7 801.4L763 759.4L665.7 630.9Z" fill="#070707" stroke="#070707"></path><path d="M810 610.9L900.3 532.3L828 520.3Z" fill="#070707" stroke="#070707"></path><path d="M111.3 615.9L166.3 734.4L281.7 632.9Z" fill="#0d0d0d" stroke="#0d0d0d"></path><path d="M392 900L553.3 786.4L388 749.4Z" fill="#020202" stroke="#020202"></path><path d="M553.3 786.4L559.3 900L662.7 801.4Z" fill="#0e0e0e" stroke="#0e0e0e"></path><path d="M935.3 635.9L900.3 532.3L810 610.9Z" fill="#040404" stroke="#040404"></path><path d="M634.7 0L531.3 119.6L694.7 105.6Z" fill="#101010" stroke="#101010"></path><path d="M634.7 0L519.3 0L531.3 119.6Z" fill="#101010" stroke="#101010"></path><path d="M386 88.6L376 0L285.7 104.6Z" fill="#0e0e0e" stroke="#0e0e0e"></path><path d="M519.3 0L376 0L386 88.6Z" fill="#0d0d0d" stroke="#0d0d0d"></path><path d="M285.7 104.6L134.3 146.6L269.7 277.1Z" fill="#101010" stroke="#101010"></path><path d="M137.3 0L134.3 146.6L285.7 104.6Z" fill="#101010" stroke="#101010"></path><path d="M0 286.1L0 369.7L121.3 381.7Z" fill="#020202" stroke="#020202"></path><path d="M784 0L634.7 0L694.7 105.6Z" fill="#020202" stroke="#020202"></path><path d="M392 900L388 749.4L277.7 746.4Z" fill="#0b0b0b" stroke="#0b0b0b"></path><path d="M662.7 801.4L796 900L763 759.4Z" fill="#101010" stroke="#101010"></path><path d="M233.7 900L392 900L277.7 746.4Z" fill="#040404" stroke="#040404"></path><path d="M0 286.1L121.3 381.7L128.3 270.1Z" fill="#000000" stroke="#000000"></path><path d="M121.3 381.7L0 540.3L150.3 524.3Z" fill="#0b0b0b" stroke="#0b0b0b"></path><path d="M376 0L266.7 0L285.7 104.6Z" fill="#050505" stroke="#050505"></path><path d="M0 369.7L0 540.3L121.3 381.7Z" fill="#000000" stroke="#000000"></path><path d="M111.3 615.9L0 750.4L166.3 734.4Z" fill="#090909" stroke="#090909"></path><path d="M559.3 900L652.7 900L662.7 801.4Z" fill="#090909" stroke="#090909"></path><path d="M909.3 734.4L810 610.9L763 759.4Z" fill="#020202" stroke="#020202"></path><path d="M909.3 734.4L935.3 635.9L810 610.9Z" fill="#090909" stroke="#090909"></path><path d="M1091.7 515.3L1048.7 354.7L899.3 424.7Z" fill="#020202" stroke="#020202"></path><path d="M134.3 146.6L0 286.1L128.3 270.1Z" fill="#111111" stroke="#111111"></path><path d="M0 120.6L0 286.1L134.3 146.6Z" fill="#000000" stroke="#000000"></path><path d="M0 540.3L0 622.9L111.3 615.9Z" fill="#0e0e0e" stroke="#0e0e0e"></path><path d="M166.3 734.4L233.7 900L277.7 746.4Z" fill="#0d0d0d" stroke="#0d0d0d"></path><path d="M796 900L909.3 734.4L763 759.4Z" fill="#050505" stroke="#050505"></path><path d="M160.3 900L233.7 900L166.3 734.4Z" fill="#090909" stroke="#090909"></path><path d="M899.3 424.7L961.3 223.1L766 269.1Z" fill="#000000" stroke="#000000"></path><path d="M777 154.6L784 0L694.7 105.6Z" fill="#050505" stroke="#050505"></path><path d="M1048.7 354.7L961.3 223.1L899.3 424.7Z" fill="#0b0b0b" stroke="#0b0b0b"></path><path d="M954.3 0L784 0L777 154.6Z" fill="#050505" stroke="#050505"></path><path d="M266.7 0L137.3 0L285.7 104.6Z" fill="#111111" stroke="#111111"></path><path d="M1036.7 158.6L969.3 161.6L961.3 223.1Z" fill="#101010" stroke="#101010"></path><path d="M961.3 223.1L969.3 161.6L777 154.6Z" fill="#111111" stroke="#111111"></path><path d="M652.7 900L796 900L662.7 801.4Z" fill="#101010" stroke="#101010"></path><path d="M0 750.4L160.3 900L166.3 734.4Z" fill="#0d0d0d" stroke="#0d0d0d"></path><path d="M137.3 0L0 120.6L134.3 146.6Z" fill="#050505" stroke="#050505"></path><path d="M0 622.9L0 750.4L111.3 615.9Z" fill="#070707" stroke="#070707"></path><path d="M1091.7 515.3L900.3 532.3L935.3 635.9Z" fill="#090909" stroke="#090909"></path><path d="M1091.7 515.3L899.3 424.7L900.3 532.3Z" fill="#111111" stroke="#111111"></path><path d="M1076.7 629.9L1091.7 515.3L935.3 635.9Z" fill="#070707" stroke="#070707"></path><path d="M1076.7 629.9L935.3 635.9L1034.7 769.4Z" fill="#111111" stroke="#111111"></path><path d="M1093.7 290.1L1036.7 158.6L961.3 223.1Z" fill="#111111" stroke="#111111"></path><path d="M969.3 161.6L954.3 0L777 154.6Z" fill="#020202" stroke="#020202"></path><path d="M1093.7 290.1L961.3 223.1L1048.7 354.7Z" fill="#070707" stroke="#070707"></path><path d="M1034.7 769.4L935.3 635.9L909.3 734.4Z" fill="#090909" stroke="#090909"></path><path d="M1200 406.7L1093.7 290.1L1048.7 354.7Z" fill="#020202" stroke="#020202"></path><path d="M1029.7 0L954.3 0L969.3 161.6Z" fill="#101010" stroke="#101010"></path><path d="M137.3 0L0 0L0 120.6Z" fill="#000000" stroke="#000000"></path><path d="M796 900L931.3 900L909.3 734.4Z" fill="#111111" stroke="#111111"></path><path d="M931.3 900L1034.7 769.4L909.3 734.4Z" fill="#020202" stroke="#020202"></path><path d="M0 750.4L0 900L160.3 900Z" fill="#020202" stroke="#020202"></path><path d="M1200 124.6L1029.7 0L1036.7 158.6Z" fill="#0e0e0e" stroke="#0e0e0e"></path><path d="M1036.7 158.6L1029.7 0L969.3 161.6Z" fill="#070707" stroke="#070707"></path><path d="M1091.7 515.3L1200 406.7L1048.7 354.7Z" fill="#0d0d0d" stroke="#0d0d0d"></path><path d="M1093.7 290.1L1200 248.1L1036.7 158.6Z" fill="#050505" stroke="#050505"></path><path d="M1200 495.3L1200 406.7L1091.7 515.3Z" fill="#000000" stroke="#000000"></path><path d="M1200 495.3L1091.7 515.3L1200 612.9Z" fill="#000000" stroke="#000000"></path><path d="M1200 612.9L1091.7 515.3L1076.7 629.9Z" fill="#101010" stroke="#101010"></path><path d="M1200 780.4L1200 612.9L1076.7 629.9Z" fill="#0e0e0e" stroke="#0e0e0e"></path><path d="M1200 780.4L1076.7 629.9L1034.7 769.4Z" fill="#0d0d0d" stroke="#0d0d0d"></path><path d="M1200 406.7L1200 248.1L1093.7 290.1Z" fill="#050505" stroke="#050505"></path><path d="M931.3 900L1089.7 900L1034.7 769.4Z" fill="#020202" stroke="#020202"></path><path d="M1200 248.1L1200 124.6L1036.7 158.6Z" fill="#090909" stroke="#090909"></path><path d="M1089.7 900L1200 780.4L1034.7 769.4Z" fill="#0d0d0d" stroke="#0d0d0d"></path><path d="M1200 124.6L1200 0L1029.7 0Z" fill="#090909" stroke="#090909"></path><path d="M1089.7 900L1200 900L1200 780.4Z" fill="#020202" stroke="#020202"></path></g></svg>